<?xml version="1.0" standalone="no"?>
<!DOCTYPE svg PUBLIC "-//W3C//DTD SVG 20010904//EN"
 "http://www.w3.org/TR/2001/REC-SVG-20010904/DTD/svg10.dtd">
<svg version="1.0" xmlns="http://www.w3.org/2000/svg"
 width="956.000000pt" height="315.000000pt" viewBox="0 0 956.000000 315.000000"
 preserveAspectRatio="xMidYMid meet">
<metadata>
Created by potrace 1.16, written by Peter Selinger 2001-2019
</metadata>
<g transform="translate(0.000000,315.000000) scale(0.100000,-0.100000)"
fill="#000000" stroke="none">
<path d="M2584 2741 c-178 -48 -300 -145 -378 -299 l-26 -52 -68 34 c-168 85
-377 121 -647 113 -426 -13 -728 -130 -812 -313 l-25 -55 1 -652 c2 -629 4
-682 33 -762 19 -53 89 -149 133 -183 101 -77 200 -107 401 -122 477 -34 859
16 1065 140 l63 38 50 -44 c116 -101 247 -148 416 -147 97 0 127 4 193 27 90
30 146 63 204 119 l42 40 63 -48 c133 -101 253 -138 448 -137 209 0 346 45
463 152 l56 51 63 -44 c173 -122 362 -177 613 -177 219 0 402 39 536 112 l57
31 78 -40 c44 -23 104 -48 134 -57 92 -27 243 -38 371 -27 140 13 211 31 315
81 l81 39 96 -48 c118 -60 192 -75 362 -74 192 1 317 35 449 124 41 27 76 49
80 49 3 0 36 -20 73 -43 154 -99 293 -136 529 -144 283 -9 459 33 639 152 128
86 142 101 161 175 23 88 21 244 -3 335 l-18 70 27 60 c87 190 82 439 -13 626
-66 132 -160 237 -281 316 -321 208 -822 184 -1115 -53 -36 -29 -34 -31 -53
51 -20 85 -70 173 -132 230 -99 92 -213 133 -393 142 -137 7 -244 -7 -363 -47
l-92 -31 -82 30 c-255 89 -573 62 -769 -68 -111 -73 -133 -101 -148 -190 -6
-41 -13 -77 -16 -79 -2 -2 -30 12 -62 32 -171 105 -435 149 -668 111 -127 -20
-221 -55 -345 -127 l-45 -26 -39 63 c-40 64 -58 75 -122 75 -24 0 -24 2 -25
98 -2 164 7 152 -144 185 -172 37 -407 47 -536 23 -152 -29 -183 -41 -202 -82
l-18 -37 -28 44 c-38 60 -115 134 -181 174 -125 75 -311 103 -446 66z m301
-250 c74 -37 127 -92 164 -170 22 -48 26 -69 25 -146 0 -102 -18 -151 -81
-224 -37 -44 -125 -101 -156 -101 -13 0 -18 -6 -15 -22 4 -33 51 -35 111 -5
l48 25 29 -24 28 -24 4 -303 c4 -329 7 -348 65 -409 25 -26 26 -31 20 -107 -9
-140 -64 -229 -175 -283 -62 -31 -74 -33 -167 -33 -89 0 -107 3 -163 29 -78
36 -151 113 -184 194 -23 56 -23 62 -26 523 l-3 466 43 18 c24 11 45 20 47 22
2 1 -15 21 -37 43 -66 66 -87 120 -87 220 1 97 26 166 85 233 100 115 282 148
425 78z m993 -146 c22 -7 22 -11 22 -156 l0 -148 107 -3 108 -3 24 -44 c65
-119 66 -304 1 -431 l-20 -40 -90 0 -90 0 0 -107 c0 -180 25 -223 129 -231
l58 -4 12 -50 c6 -27 11 -80 11 -117 0 -211 -125 -330 -366 -348 -200 -15
-371 62 -440 199 -46 92 -54 146 -54 385 l0 223 58 0 c57 0 82 11 82 37 0 9
-35 13 -142 15 l-143 3 -12 55 c-12 61 -15 192 -5 259 7 43 11 48 106 115 l99
71 51 152 c28 83 54 155 58 159 18 17 93 23 248 19 91 -2 175 -6 188 -10z
m-2026 -68 c186 -49 312 -139 372 -266 57 -121 47 -292 -24 -389 l-30 -42 -38
15 c-49 21 -131 23 -143 4 -15 -23 -11 -26 53 -39 147 -29 246 -118 290 -263
17 -57 20 -87 16 -167 -4 -83 -10 -107 -37 -166 -58 -125 -168 -202 -357 -249
-145 -37 -297 -48 -569 -42 -258 6 -333 16 -405 52 -55 28 -73 47 -102 110
l-23 50 -3 616 -3 616 26 32 c35 41 130 85 251 115 150 38 221 45 434 41 171
-2 207 -6 292 -28z m4431 -6 c43 -14 72 -30 81 -44 7 -12 26 -66 41 -120 l29
-98 -23 -102 c-26 -118 -25 -152 4 -152 17 0 26 29 78 242 l59 243 81 26 c183
59 426 38 521 -45 29 -26 64 -102 75 -167 20 -115 103 -895 125 -1176 l5 -66
-41 -37 c-135 -123 -436 -153 -614 -62 -88 45 -117 93 -129 214 -7 69 -6 71
17 78 76 22 188 136 188 192 0 40 -34 28 -68 -25 -70 -108 -202 -154 -340
-119 -69 19 -123 58 -168 123 -40 58 -74 72 -74 30 0 -63 127 -184 219 -209
l43 -12 -6 -50 c-3 -27 -6 -80 -6 -117 l0 -67 -63 -31 c-76 -37 -190 -59 -307
-59 -218 -1 -394 85 -431 209 -16 54 -3 271 47 765 42 423 58 541 75 561 21
25 128 75 193 90 93 21 302 13 389 -15z m-1178 -225 c111 -31 184 -75 271
-161 123 -123 171 -242 162 -407 -15 -248 -198 -388 -507 -388 -114 0 -208 18
-271 50 l-40 20 0 -25 c0 -79 317 -126 512 -76 42 11 100 32 130 48 29 15 56
29 60 31 10 5 39 -56 54 -113 16 -58 18 -163 5 -198 -21 -54 -197 -141 -341
-167 -90 -16 -321 -14 -406 4 -210 45 -378 166 -463 335 -61 119 -76 191 -76
356 0 165 12 230 65 343 82 175 256 312 455 356 89 20 303 15 390 -8z m3153 9
c298 -60 506 -318 478 -592 -14 -134 -86 -247 -194 -306 -151 -82 -438 -91
-582 -17 l-40 20 0 -25 c0 -51 144 -96 309 -96 132 0 231 20 324 65 67 32 73
34 85 18 26 -35 47 -127 47 -215 0 -85 -1 -88 -30 -112 -46 -38 -182 -103
-254 -121 -88 -22 -245 -32 -366 -22 -186 14 -334 77 -451 193 -80 80 -121
145 -160 260 -35 105 -45 307 -21 427 55 264 237 454 495 518 97 23 255 26
360 5z"/>
</g>
</svg>
